<svg xmlns="http://www.w3.org/2000/svg" viewBox="0 0 240 240">
  <defs>
    <linearGradient id="giftBody" x1="0" x2="0" y1="0" y2="1">
      <stop offset="0" stop-color="#ff6f61" />
      <stop offset="1" stop-color="#e53935" />
    </linearGradient>
    <linearGradient id="giftLid" x1="0" x2="0" y1="0" y2="1">
      <stop offset="0" stop-color="#ff8a80" />
      <stop offset="1" stop-color="#ef5350" />
    </linearGradient>
    <linearGradient id="giftRibbon" x1="0" x2="0" y1="0" y2="1">
      <stop offset="0" stop-color="#fff59d" />
      <stop offset="1" stop-color="#f9a825" />
    </linearGradient>
  </defs>
  <rect x="34" y="88" width="172" height="124" rx="20" fill="url(#giftBody)" />
  <rect x="34" y="88" width="172" height="72" rx="20" fill="url(#giftLid)" />
  <rect x="34" y="140" width="172" height="22" fill="url(#giftRibbon)" />
  <rect x="108" y="88" width="24" height="124" fill="url(#giftRibbon)" />
  <path d="M120 70C108 22 56 28 46 60C36 94 70 110 104 100C94 92 94 74 120 70Z" fill="#ffcc80" />
  <path d="M120 70C132 22 184 28 194 60C204 94 170 110 136 100C146 92 146 74 120 70Z" fill="#ffcc80" />
  <path d="M104 60C90 44 62 44 54 66C48 82 58 96 82 100C78 82 88 68 104 60Z" fill="#f48fb1" />
  <path d="M136 60C150 44 178 44 186 66C192 82 182 96 158 100C162 82 152 68 136 60Z" fill="#f48fb1" />
  <rect x="106" y="62" width="28" height="44" rx="10" fill="url(#giftRibbon)" />
</svg>
